<svg width="45" height="45" viewBox="0 0 45 45" fill="none" xmlns="http://www.w3.org/2000/svg">
<path d="M22.5 45C34.9264 45 45 34.9264 45 22.5C45 10.0736 34.9264 0 22.5 0C10.0736 0 0 10.0736 0 22.5C0 34.9264 10.0736 45 22.5 45Z" fill="#ABD995"/>
<path d="M44.088 28.8553C41.3451 38.1866 32.719 44.9989 22.5 44.9989C21.6073 44.9989 20.7277 44.9452 19.8614 44.8439L10.4004 35.3829L25.9513 35.4376L25.7527 23.7251L25.3464 22.1677L26.3728 11.1401L44.088 28.8553Z" fill="#ABD995"/>
<path d="M16.3159 25.1072H16.7486L19.2828 23.725L19.6952 22.1129C18.0618 20.8625 16.9604 18.6738 16.9604 16.7303V14.9338C16.9604 12.0095 19.452 9.61609 22.5 9.61609C25.5469 9.61609 28.0407 12.0095 28.0407 14.9338V16.7303C28.0407 18.6738 26.9382 20.8625 25.3048 22.1119L25.7172 23.725H25.7527L28.2159 25.1072H28.6841C31.9388 25.1072 34.6007 27.6688 34.6007 30.7846V35.3828H10.4004V30.7846C10.4004 27.6616 13.0612 25.1072 16.3159 25.1072Z" fill="#F9F9F9"/>
<path d="M20.2769 10.066C20.9588 9.77719 21.7107 9.61609 22.5 9.61609C25.5469 9.61609 28.0407 12.0095 28.0407 14.9338V16.7303C28.0407 18.6738 26.9382 20.8625 25.3048 22.1119L25.7172 23.725H25.7527L28.2159 25.1072H28.6841C31.9388 25.1072 34.6007 27.6688 34.6007 30.7846V35.3828H33.4941V31.125C33.4941 28.0091 30.8323 25.4475 27.5776 25.4475H27.1095L24.6462 24.0654H24.6107L24.1984 22.4523C25.8318 21.203 26.9332 19.0142 26.9332 17.0707V15.2742C26.9332 12.3499 24.4405 9.95648 21.3936 9.95648H21.3925C21.0114 9.95657 20.6375 9.99401 20.2769 10.066Z" fill="#EAEAED"/>
</svg>
