<svg width="15" height="15" viewBox="0 0 15 15" fill="none" xmlns="http://www.w3.org/2000/svg">
<g clipPath="url(#clip0)">
<path d="M7.50004 5.45456C6.37162 5.45456 5.45459 6.37159 5.45459 7.50002C5.45459 8.62844 6.37162 9.54547 7.50004 9.54547C8.62846 9.54547 9.5455 8.62844 9.5455 7.50002C9.5455 6.37159 8.62843 5.45456 7.50004 5.45456Z" fill="#9EA2A1"/>
<path d="M7.50002 2.38638C4.09091 2.38638 1.17956 4.50681 0 7.50002C1.17956 10.4932 4.09091 12.6137 7.50002 12.6137C10.9125 12.6137 13.8205 10.4932 15 7.50002C13.8205 4.50681 10.9125 2.38638 7.50002 2.38638ZM7.50002 10.9091C5.6182 10.9091 4.09091 9.3818 4.09091 7.49998C4.09091 5.61816 5.6182 4.09091 7.50002 4.09091C9.38184 4.09091 10.9091 5.6182 10.9091 7.50002C10.9091 9.38184 9.38184 10.9091 7.50002 10.9091Z" fill="#9EA2A1"/>
</g>
<defs>
<clipPath id="clip0">
<rect width="15" height="15" fill="white"/>
</clipPath>
</defs>
</svg>